[Header]
FileType HTR
DataType HTRS
FileVersion 1
NumSegments 64
NumFrames 4
DataFrameRate 24
EulerRotationOrder ZYX
CalibrationUnits mm
RotationUnits Degrees
GlobalAxisofGravity Y
BoneLengthAxis Y
ScaleFactor 1.0
[SegmentNames&Hierarchy]
Hips	GLOBAL
Spine	Hips
Spine1	Spine
Spine2	Spine1
Neck	Spine2
Head	Neck
LeftEye	Head
RightEye	Head
LeftShoulder	Spine2
LeftArm	LeftShoulder
LeftForeArm	LeftArm
LeftHand	LeftForeArm
LeftHandThumb1	LeftHand
LeftHandThumb2	LeftHandThumb1
LeftHandThumb3	LeftHandThumb2
LeftHandThumb4	LeftHandThumb3
LeftHandIndex1	LeftHand
LeftHandIndex2	LeftHandIndex1
LeftHandIndex3	LeftHandIndex2
LeftHandIndex4	LeftHandIndex3
LeftHandMiddle1	LeftHand
LeftHandMiddle2	LeftHandMiddle1
LeftHandMiddle3	LeftHandMiddle2
LeftHandMiddle4	LeftHandMiddle3
LeftHandRing1	LeftHand
LeftHandRing2	LeftHandRing1
LeftHandRing3	LeftHandRing2
LeftHandRing4	LeftHandRing3
LeftHandPinky1	LeftHand
LeftHandPinky2	LeftHandPinky1
LeftHandPinky3	LeftHandPinky2
LeftHandPinky4	LeftHandPinky3
RightShoulder	Spine2
RightArm	RightShoulder
RightForeArm	RightArm
RightHand	RightForeArm
RightHandPinky1	RightHand
RightHandPinky2	RightHandPinky1
RightHandPinky3	RightHandPinky2
RightHandPinky4	RightHandPinky3
RightHandRing1	RightHand
RightHandRing2	RightHandRing1
RightHandRing3	RightHandRing2
RightHandRing4	RightHandRing3
RightHandMiddle1	RightHand
RightHandMiddle2	RightHandMiddle1
RightHandMiddle3	RightHandMiddle2
RightHandMiddle4	RightHandMiddle3
RightHandIndex1	RightHand
RightHandIndex2	RightHandIndex1
RightHandIndex3	RightHandIndex2
RightHandIndex4	RightHandIndex3
RightHandThumb1	RightHand
RightHandThumb2	RightHandThumb1
RightHandThumb3	RightHandThumb2
RightHandThumb4	RightHandThumb3
LeftUpLeg	Hips
LeftLeg	LeftUpLeg
LeftFoot	LeftLeg
LeftToeBase	LeftFoot
RightUpLeg	Hips
RightLeg	RightUpLeg
RightFoot	RightLeg
RightToeBase	RightFoot
[BasePosition]
Hips	0	0	0	0	0	0	1
Spine	0	0	0	0	0	0	1
Spine1	0	0	0	0	0	0	1
Spine2	0	0	0	0	0	0	1
Neck	0	0	0	0	0	0	1
Head	0	0	0	0	0	0	1
LeftEye	0	0	0	0	0	0	1
RightEye	0	0	0	0	0	0	1
LeftShoulder	0	0	0	0	0	0	1
LeftArm	0	0	0	0	0	0	1
LeftForeArm	0	0	0	0	0	0	1
LeftHand	0	0	0	0	0	0	1
LeftHandThumb1	0	0	0	0	0	0	1
LeftHandThumb2	0	0	0	0	0	0	1
LeftHandThumb3	0	0	0	0	0	0	1
LeftHandThumb4	0	0	0	0	0	0	1
LeftHandIndex1	0	0	0	0	0	0	1
LeftHandIndex2	0	0	0	0	0	0	1
LeftHandIndex3	0	0	0	0	0	0	1
LeftHandIndex4	0	0	0	0	0	0	1
LeftHandMiddle1	0	0	0	0	0	0	1
LeftHandMiddle2	0	0	0	0	0	0	1
LeftHandMiddle3	0	0	0	0	0	0	1
LeftHandMiddle4	0	0	0	0	0	0	1
LeftHandRing1	0	0	0	0	0	0	1
LeftHandRing2	0	0	0	0	0	0	1
LeftHandRing3	0	0	0	0	0	0	1
LeftHandRing4	0	0	0	0	0	0	1
LeftHandPinky1	0	0	0	0	0	0	1
LeftHandPinky2	0	0	0	0	0	0	1
LeftHandPinky3	0	0	0	0	0	0	1
LeftHandPinky4	0	0	0	0	0	0	1
RightShoulder	0	0	0	0	0	0	1
RightArm	0	0	0	0	0	0	1
RightForeArm	0	0	0	0	0	0	1
RightHand	0	0	0	0	0	0	1
RightHandPinky1	0	0	0	0	0	0	1
RightHandPinky2	0	0	0	0	0	0	1
RightHandPinky3	0	0	0	0	0	0	1
RightHandPinky4	0	0	0	0	0	0	1
RightHandRing1	0	0	0	0	0	0	1
RightHandRing2	0	0	0	0	0	0	1
RightHandRing3	0	0	0	0	0	0	1
RightHandRing4	0	0	0	0	0	0	1
RightHandMiddle1	0	0	0	0	0	0	1
RightHandMiddle2	0	0	0	0	0	0	1
RightHandMiddle3	0	0	0	0	0	0	1
RightHandMiddle4	0	0	0	0	0	0	1
RightHandIndex1	0	0	0	0	0	0	1
RightHandIndex2	0	0	0	0	0	0	1
RightHandIndex3	0	0	0	0	0	0	1
RightHandIndex4	0	0	0	0	0	0	1
RightHandThumb1	0	0	0	0	0	0	1
RightHandThumb2	0	0	0	0	0	0	1
RightHandThumb3	0	0	0	0	0	0	1
RightHandThumb4	0	0	0	0	0	0	1
LeftUpLeg	0	0	0	0	0	0	1
LeftLeg	0	0	0	0	0	0	1
LeftFoot	0	0	0	0	0	0	1
LeftToeBase	0	0	0	0	0	0	1
RightUpLeg	0	0	0	0	0	0	1
RightLeg	0	0	0	0	0	0	1
RightFoot	0	0	0	0	0	0	1
RightToeBase	0	0	0	0	0	0	1
[Hips]
538	-42.6242218	1009.545654	31.43787766	173.4790039	174.4332428	-544.309021	1.0
539	-30.43878937	997.4407349	2.003726482	172.0012054	180.8081055	-540.7484741	1.0
540	-20.739254	982.9967041	-24.84924698	170.4823151	185.2656097	-538.4686279	1.0
541	-14.84683228	968.0184937	-41.18355179	169.2126465	191.4056396	-538.1209106	1.0
[Spine]
538	0	101.8159943	1.315000057	14.84156322	2.631368399	5.454036713	1.0
539	0	101.8159943	1.315000057	20.72401237	-1.682532668	0.5799260139	1.0
540	0	101.8159943	1.315000057	25.63294411	-7.250804424	-6.295973778	1.0
541	0	101.8159943	1.315000057	26.99436378	-10.13529778	-8.500319481	1.0
[Spine1]
538	0	100.8349991	-10.00800037	-1.828188419	0.6748242974	-7.195727825	1.0
539	0	100.8349991	-10.00800037	-3.426386833	0.06159365922	-6.843325138	1.0
540	0	100.8349991	-10.00800037	-3.986436605	-0.7812685966	-5.814395905	1.0
541	0	100.8349991	-10.00800037	-3.726124287	-1.182492137	-5.865801811	1.0
[Spine2]
538	0	91	-13.73399925	-1.743832111	0.4981828928	-7.216159821	1.0
539	0	91	-13.73399925	-3.396762848	-0.1922297031	-6.847545624	1.0
540	0	91	-13.73399925	-4.01954174	-1.096044779	-5.72940588	1.0
541	0	91	-13.73399925	-3.784718752	-1.522045732	-5.737965107	1.0
[Neck]
538	0	166.7169952	-25.16200066	-3.746114731	0.805911541	-1.953309894	1.0
539	0	166.7169952	-25.16200066	-7.592368603	2.559037209	0.5277776718	1.0
540	0	166.7169952	-25.16200066	-10.89259815	4.235566139	2.685403347	1.0
541	0	166.7169952	-25.16200066	-12.03582478	5.301174164	3.932519197	1.0
[Head]
538	0	96.17900085	16.84999847	-14.59135056	1.673612833	8.358556747	1.0
539	0	96.17900085	16.84999847	-15.71751785	13.41697311	6.392795086	1.0
540	0	96.17900085	16.84999847	-18.20956612	23.63435173	5.500054836	1.0
541	0	96.17900085	16.84999847	-21.32479668	29.84337044	5.0666008	1.0
[LeftEye]
538	30.6760006	64.09500122	92.83599854	0	0	0	1.0
539	30.6760006	64.09500122	92.83599854	0	0	0	1.0
540	30.6760006	64.09500122	92.83599854	0	0	0	1.0
541	30.6760006	64.09500122	92.83599854	0	0	0	1.0
[RightEye]
538	-30.6760006	64.09500122	92.83499908	0	0	0	1.0
539	-30.6760006	64.09500122	92.83499908	0	0	0	1.0
540	-30.6760006	64.09500122	92.83499908	0	0	0	1.0
541	-30.6760006	64.09500122	92.83499908	0	0	0	1.0
[LeftShoulder]
538	45.70400238	109.4599991	-26.28000069	0.1568730921	1.341855288	-8.027550697	1.0
539	45.70400238	109.4599991	-26.28000069	-0.4972437918	5.853921413	-14.15673161	1.0
540	45.70400238	109.4599991	-26.28000069	-0.8172112703	6.550013542	-20.26728249	1.0
541	45.70400238	109.4599991	-26.28000069	0.09184911847	3.219675779	-26.14524269	1.0
[LeftArm]
538	105.923996	-5.24600029	-22.32099915	15.90528488	30.60752106	-24.46823883	1.0
539	105.923996	-5.24600029	-22.32099915	14.99528694	30.54709625	-27.91189575	1.0
540	105.923996	-5.24600029	-22.32099915	12.39720345	24.75550842	-29.25987625	1.0
541	105.923996	-5.24600029	-22.32099915	16.70096397	18.00814629	-22.69497108	1.0
[LeftForeArm]
538	278.414978	-0.0009999999311	0	1.196429366e-05	-16.6247673	-0.0002135065588	1.0
539	278.414978	-0.0009999999311	0	8.939879081e-06	-23.60050583	-0.0002151076187	1.0
540	278.414978	-0.0009999999311	0	-6.545740689e-06	-24.79838181	-0.0002074811346	1.0
541	278.414978	-0.0009999999311	0	1.013853489e-05	-26.60995865	-0.0002278897591	1.0
[LeftHand]
538	283.2879944	0	0	-17.14918518	13.17135715	-11.50214767	1.0
539	283.2879944	0	0	-5.398662567	25.63902855	-16.65316391	1.0
540	283.2879944	0	0	-13.69252777	27.73817253	-10.22233486	1.0
541	283.2879944	0	0	-24.97326851	26.84353828	-3.099546194	1.0
[LeftHandThumb1]
538	24.6609993	-15.75	26.8239994	4.921517372	3.799610853	-16.40886116	1.0
539	24.6609993	-15.75	26.8239994	5.801451206	7.732348442	-11.76239395	1.0
540	24.6609993	-15.75	26.8239994	3.873432159	9.22226429	-3.937318087	1.0
541	24.6609993	-15.75	26.8239994	-0.4761069119	6.933087349	3.898036718	1.0
[LeftHandThumb2]
538	32.29800034	-18.64699936	18.64699936	1.188963413	-0.1742479652	-1.057070255	1.0
539	32.29800034	-18.64699936	18.64699936	1.187480569	-0.1733110398	-1.057985663	1.0
540	32.29800034	-18.64699936	18.64699936	1.192236304	-0.1761893034	-1.058127999	1.0
541	32.29800034	-18.64699936	18.64699936	1.19988513	-0.1806469709	-1.057366133	1.0
[LeftHandThumb3]
538	26.52600098	-15.31499958	15.31499958	0.7646819949	-3.799005508	4.07043314	1.0
539	26.52600098	-15.31499958	15.31499958	0.4714361131	-3.224542379	3.878105164	1.0
540	26.52600098	-15.31499958	15.31499958	-0.6763902307	-2.660203934	3.617061138	1.0
541	26.52600098	-15.31499958	15.31499958	-1.725729942	-2.224053144	3.426270008	1.0
[LeftHandThumb4]
538	19.54599953	-11.28499985	11.28499985	0	0	0	1.0
539	19.54599953	-11.28499985	11.28499985	0	0	0	1.0
540	19.54599953	-11.28499985	11.28499985	0	0	0	1.0
541	19.54599953	-11.28499985	11.28499985	0	0	0	1.0
[LeftHandIndex1]
538	91.09299469	-5.170999527	22.60099792	-0.6634550095	2.75618124	-24.28611755	1.0
539	91.09299469	-5.170999527	22.60099792	-0.1591190994	2.58642292	-12.39785862	1.0
540	91.09299469	-5.170999527	22.60099792	0.005630841944	-0.7711811662	2.173910141	1.0
541	91.09299469	-5.170999527	22.60099792	-0.2368760705	-5.00419426	15.48370552	1.0
[LeftHandIndex2]
538	36.76399994	0	0	-0.0003611511784	0.1314555258	-1.092423439	1.0
539	36.76399994	0	0	-9.339239114e-06	0.002670518821	-0.02218441479	1.0
540	36.76399994	0	0	-1.246487318e-05	0.0026634112	-0.02217170596	1.0
541	36.76399994	0	0	-4.616171736e-06	0.00266662729	-0.02218638361	1.0
[LeftHandIndex3]
538	28.83100128	0	0	-0.04984720796	0.8265788555	-6.892503738	1.0
539	28.83100128	0	0	-0.0552210249	0.8704457879	-7.260173798	1.0
540	28.83100128	0	0	-0.06096129864	0.9142966866	-7.62821579	1.0
541	28.83100128	0	0	-0.06342215836	0.9325785637	-7.781645298	1.0
[LeftHandIndex4]
538	23.92700005	0	0	0	0	0	1.0
539	23.92700005	0	0	0	0	0	1.0
540	23.92700005	0	0	0	0	0	1.0
541	23.92700005	0	0	0	0	0	1.0
[LeftHandMiddle1]
538	95.33399963	0	0	-0.7437922955	4.524624825	-26.2639122	1.0
539	95.33399963	0	0	-0.2552406192	4.944543839	-15.93301105	1.0
540	95.33399963	0	0	0.00586602604	3.417725801	-2.65527153	1.0
541	95.33399963	0	0	-0.09450799972	0.9255248308	9.814424515	1.0
[LeftHandMiddle2]
538	36.98199844	0	0	-0.4753258824	2.402915478	-20.56018066	1.0
539	36.98199844	0	0	-0.1326582134	1.345232248	-11.26392555	1.0
540	36.98199844	0	0	-0.002451146953	0.1839544624	-1.530311108	1.0
541	36.98199844	0	0	2.015566906e-06	0.0004030301934	-0.003354533808	1.0
[LeftHandMiddle3]
538	29.50900078	0	0	-0.05951481685	0.9034805298	-7.537431717	1.0
539	29.50900078	0	0	-0.05953785405	0.9036496878	-7.53883791	1.0
540	29.50900078	0	0	-0.05832257122	0.8944315314	-7.461517334	1.0
541	29.50900078	0	0	-0.05437693372	0.8637703061	-7.204309464	1.0
[LeftHandMiddle4]
538	28.3390007	0	0	0	0	0	1.0
539	28.3390007	0	0	0	0	0	1.0
540	28.3390007	0	0	0	0	0	1.0
541	28.3390007	0	0	0	0	0	1.0
[LeftHandRing1]
538	91.04499817	-0.4390000105	-18.65100098	-1.219530106	7.170776367	-34.29486084	1.0
539	91.04499817	-0.4390000105	-18.65100098	-0.5232034326	8.438757896	-23.1031723	1.0
540	91.04499817	-0.4390000105	-18.65100098	-0.0137308985	8.447570801	-7.999603748	1.0
541	91.04499817	-0.4390000105	-18.65100098	0.01288162358	6.597267151	6.501291752	1.0
[LeftHandRing2]
538	31.54000092	0	0	-0.8978208899	3.277699471	-28.73503304	1.0
539	31.54000092	0	0	-0.3154146969	2.05997467	-17.40875053	1.0
540	31.54000092	0	0	-0.02812762372	0.6218364835	-5.179702282	1.0
541	31.54000092	0	0	5.573845556e-06	0.002648917725	-0.02203613333	1.0
[LeftHandRing3]
538	29.37700081	0	0	-0.06680448353	0.9569004774	-7.986038208	1.0
539	29.37700081	0	0	-0.06846430153	0.9687772393	-8.085816383	1.0
540	29.37700081	0	0	-0.06816676259	0.966676414	-8.068040848	1.0
541	29.37700081	0	0	-0.06348286569	0.932990849	-7.785162449	1.0
[LeftHandRing4]
538	26.47500038	0	0	0	0	0	1.0
539	26.47500038	0	0	0	0	0	1.0
540	26.47500038	0	0	0	0	0	1.0
541	26.47500038	0	0	0	0	0	1.0
[LeftHandPinky1]
538	80.77799988	-4.887000084	-38.06099701	-2.407940388	13.56561184	-49.79519653	1.0
539	80.77799988	-4.887000084	-38.06099701	-1.076371789	17.74271965	-34.94290924	1.0
540	80.77799988	-4.887000084	-38.06099701	0.09759201854	19.3614502	-14.36062241	1.0
541	80.77799988	-4.887000084	-38.06099701	0.347563684	17.97250366	5.583202839	1.0
[LeftHandPinky2]
538	36	0	0	0.666867137	-2.547235489	-12.26287651	1.0
539	36	0	0	0.2739472091	-3.583624125	-4.350378036	1.0
540	36	0	0	0.02071905136	-4.049879074	-0.5475347638	1.0
541	36	0	0	0.01660636067	-4.05690527	-0.4891488552	1.0
[LeftHandPinky3]
538	21.14200211	0	0	-0.04294993728	0.7665693164	-6.390030861	1.0
539	21.14200211	0	0	-0.04987921566	0.8275418282	-6.900475979	1.0
540	21.14200211	0	0	-0.05524542928	0.8705966473	-7.261502266	1.0
541	21.14200211	0	0	-0.05415615812	0.8620093465	-7.189474106	1.0
[LeftHandPinky4]
538	19.75699997	0	0	0	0	0	1.0
539	19.75699997	0	0	0	0	0	1.0
540	19.75699997	0	0	0	0	0	1.0
541	19.75699997	0	0	0	0	0	1.0
[RightShoulder]
538	-45.70000076	109.4620056	-26.28000069	-0.3693091273	0.824118495	-20.77381134	1.0
539	-45.70000076	109.4620056	-26.28000069	-0.5558245778	-0.5961199999	-31.29290771	1.0
540	-45.70000076	109.4620056	-26.28000069	0.4044290483	-5.65402174	-30.89459801	1.0
541	-45.70000076	109.4620056	-26.28000069	0.5767507553	-6.993789673	-28.35012245	1.0
[RightArm]
538	-105.9280014	-5.248000145	-22.32099915	-29.7514801	3.930954456	-15.49549484	1.0
539	-105.9280014	-5.248000145	-22.32099915	-26.37035751	-7.303852558	-10.8556633	1.0
540	-105.9280014	-5.248000145	-22.32099915	-34.66020203	-10.94664764	-8.85281086	1.0
541	-105.9280014	-5.248000145	-22.32099915	-41.00353622	-14.19367313	-2.646063328	1.0
[RightForeArm]
538	-278.414978	0	0	3.618424671e-07	55.28084564	3.37806614e-06	1.0
539	-278.414978	0	0	1.601276381e-05	63.03284836	2.012910227e-05	1.0
540	-278.414978	0	0	2.679041017e-06	67.29251099	-5.80390315e-06	1.0
541	-278.414978	0	0	3.365531938e-06	70.48944855	1.872675853e-06	1.0
[RightHand]
538	-283.2879944	0	0.0009999999311	-21.96221352	15.07975292	18.63503647	1.0
539	-283.2879944	0	0.0009999999311	4.260830879	-4.773619175	20.46352768	1.0
540	-283.2879944	0	0.0009999999311	25.04240227	-16.164011	6.590301991	1.0
541	-283.2879944	0	0.0009999999311	34.09769821	-11.78810787	-10.47918892	1.0
[RightHandPinky1]
538	-80.76699829	-4.885000229	-38.06000137	-5.364342213	-14.07168198	77.11933899	1.0
539	-80.76699829	-4.885000229	-38.06000137	-4.888645172	-16.07544708	73.10425568	1.0
540	-80.76699829	-4.885000229	-38.06000137	-3.399283648	-18.14342117	59.99866867	1.0
541	-80.76699829	-4.885000229	-38.06000137	-1.499793649	-18.35434532	40.37699509	1.0
[RightHandPinky2]
538	-36	0	0.0009999999311	-2.828808308	-5.600185394	53.76961899	1.0
539	-36	0	0.0009999999311	-2.585120201	-5.399919987	51.15156937	1.0
540	-36	0	0.0009999999311	-1.787866831	-4.648786068	42.06749725	1.0
541	-36	0	0.0009999999311	-0.9244425297	-3.462153912	29.90515327	1.0
[RightHandPinky3]
538	-21.14200211	0	0	-0.04880286381	0.8252667189	-6.814421654	1.0
539	-21.14200211	0	0	-0.04179940373	0.7613088489	-6.284257412	1.0
540	-21.14200211	0	0	-0.02184408158	0.5508605242	-4.542687893	1.0
541	-21.14200211	0	0	-0.003205502406	0.2111399174	-1.739545941	1.0
[RightHandPinky4]
538	-19.75699997	0	0	0	0	0	1.0
539	-19.75699997	0	0	0	0	0	1.0
540	-19.75699997	0	0	0	0	0	1.0
541	-19.75699997	0	0	0	0	0	1.0
[RightHandRing1]
538	-91.03599548	-0.4390000105	-18.65100098	-3.816414833	-6.892746449	63.3625412	1.0
539	-91.03599548	-0.4390000105	-18.65100098	-3.47282052	-8.673229218	60.07764435	1.0
540	-91.03599548	-0.4390000105	-18.65100098	-2.346482038	-10.24176502	48.65538025	1.0
541	-91.03599548	-0.4390000105	-18.65100098	-0.8347523212	-9.868714333	28.99961853	1.0
[RightHandRing2]
538	-31.54000092	0	0	-0.6678368449	-2.985045433	25.42020035	1.0
539	-31.54000092	0	0	-0.5733311176	-2.763936281	23.43359566	1.0
540	-31.54000092	0	0	-0.2941668332	-2.000888586	16.72563362	1.0
541	-31.54000092	0	0	-0.07760236412	-1.036051631	8.567302704	1.0
[RightHandRing3]
538	-29.37700081	0	0	0.1238165051	0.01697154902	-0.1398700029	1.0
539	-29.37700081	0	0	0.5861434937	-0.003105835756	0.02561079338	1.0
540	-29.37700081	0	0	0.9332640767	-0.01352045592	0.1113691106	1.0
541	-29.37700081	0	0	0.612962842	-0.05256861448	0.4329098165	1.0
[RightHandRing4]
538	-26.47500038	0	0	0	0	0	1.0
539	-26.47500038	0	0	0	0	0	1.0
540	-26.47500038	0	0	0	0	0	1.0
541	-26.47500038	0	0	0	0	0	1.0
[RightHandMiddle1]
538	-95.32500458	0	0	-3.216115952	-0.01229202747	57.94457626	1.0
539	-95.32500458	0	0	-2.942404985	-2.063730955	54.90721893	1.0
540	-95.32500458	0	0	-1.85468328	-3.69141221	42.7586937	1.0
541	-95.32500458	0	0	-0.6949679852	-3.561316252	25.81267166	1.0
[RightHandMiddle2]
538	-36.98199844	0	0	-0.4855824113	-2.560819149	21.60899162	1.0
539	-36.98199844	0	0	-0.4174085855	-2.372357607	19.95454788	1.0
540	-36.98199844	0	0	-0.2241830528	-1.751348495	14.58840561	1.0
541	-36.98199844	0	0	-0.06429868937	-0.9434551597	7.796552658	1.0
[RightHandMiddle3]
538	-29.50900078	0	0	-1.186555862	0.01688263565	-0.1556531787	1.0
539	-29.50900078	0	0	-0.730406642	-0.02951738425	0.2267256677	1.0
540	-29.50900078	0	0	-0.1135261431	-0.06329574436	0.5049723983	1.0
541	-29.50900078	0	0	0.0774923712	-0.07173140347	0.5742245913	1.0
[RightHandMiddle4]
538	-28.3390007	0	0.0009999999311	0	0	0	1.0
539	-28.3390007	0	0.0009999999311	0	0	0	1.0
540	-28.3390007	0	0.0009999999311	0	0	0	1.0
541	-28.3390007	0	0.0009999999311	0	0	0	1.0
[RightHandIndex1]
538	-91.08300018	-5.167999744	22.60099792	-3.210914135	7.716975212	59.03858948	1.0
539	-91.08300018	-5.167999744	22.60099792	-3.021695137	4.854639053	56.28721619	1.0
540	-91.08300018	-5.167999744	22.60099792	-1.810312867	2.520185471	42.63519669	1.0
541	-91.08300018	-5.167999744	22.60099792	-0.6432363391	2.245790958	25.30817032	1.0
[RightHandIndex2]
538	-36.76399994	0	0	-0.07428275049	-1.022946715	8.455917358	1.0
539	-36.76399994	0	0	-0.05786691606	-0.8952538967	7.395823479	1.0
540	-36.76399994	0	0	-0.03345470503	-0.6814013124	5.62233448	1.0
541	-36.76399994	0	0	-0.01356563345	-0.4341607094	3.578862667	1.0
[RightHandIndex3]
538	-28.83100128	0	0	-0.02090761065	0.5480474234	-4.519066811	1.0
539	-28.83100128	0	0	-0.01317391731	0.427906543	-3.52716279	1.0
540	-28.83100128	0	0	-0.004261772148	0.2434627712	-2.005903721	1.0
541	-28.83100128	0	0	-0.0007291478687	0.100669086	-0.8293092847	1.0
[RightHandIndex4]
538	-23.92700005	0	0	0	0	0	1.0
539	-23.92700005	0	0	0	0	0	1.0
540	-23.92700005	0	0	0	0	0	1.0
541	-23.92700005	0	0	0	0	0	1.0
[RightHandThumb1]
538	-24.64799881	-15.72700024	26.82600021	2.874006748	-10.36787415	-8.24300766	1.0
539	-24.64799881	-15.72700024	26.82600021	5.236303329	-10.83133793	-6.318455696	1.0
540	-24.64799881	-15.72700024	26.82600021	6.183030128	-11.47969627	-7.084475517	1.0
541	-24.64799881	-15.72700024	26.82600021	5.840742588	-12.91988373	-10.14078045	1.0
[RightHandThumb2]
538	-32.29800034	-18.64699936	18.64699936	6.639395714	-10.8893404	-1.247860789	1.0
539	-32.29800034	-18.64699936	18.64699936	6.238407612	-10.77289772	-1.157082081	1.0
540	-32.29800034	-18.64699936	18.64699936	4.839407921	-7.892205715	-0.2243629098	1.0
541	-32.29800034	-18.64699936	18.64699936	3.405195713	-4.276253223	0.7345122695	1.0
[RightHandThumb3]
538	-26.52600098	-15.31399918	15.31399918	-1.561080337	-0.0171866715	-3.006615877	1.0
539	-26.52600098	-15.31399918	15.31399918	-1.158291578	-0.6622082591	-2.896367073	1.0
540	-26.52600098	-15.31399918	15.31399918	-1.738724828	0.3693965077	-2.82217598	1.0
541	-26.52600098	-15.31399918	15.31399918	-2.764172554	2.143130541	-2.861228943	1.0
[RightHandThumb4]
538	-19.54599953	-11.28499985	11.28499985	0	0	0	1.0
539	-19.54599953	-11.28499985	11.28499985	0	0	0	1.0
540	-19.54599953	-11.28499985	11.28499985	0	0	0	1.0
541	-19.54599953	-11.28499985	11.28499985	0	0	0	1.0
[LeftUpLeg]
538	82.07800293	-67.51699829	-15.99599934	-4.077377796	-4.218901634	5.439670086	1.0
539	82.07800293	-67.51699829	-15.99599934	-5.558786869	2.829705715	2.012439251	1.0
540	82.07800293	-67.51699829	-15.99599934	-8.317847252	2.766687155	-1.618118644	1.0
541	82.07800293	-67.51699829	-15.99599934	-10.34869099	9.617179871	-1.310350657	1.0
[LeftLeg]
538	0	-443.7049866	2.845999956	27.03488541	13.93992901	-4.03370285	1.0
539	0	-443.7049866	2.845999956	30.89251709	12.18456459	-4.917785168	1.0
540	0	-443.7049866	2.845999956	34.89899826	6.824316502	-7.819176197	1.0
541	0	-443.7049866	2.845999956	39.80815887	1.229992151	-12.30688572	1.0
[LeftFoot]
538	0	-444.2789917	-29.8219986	-18.04772377	4.166998863	3.824826717	1.0
539	0	-444.2789917	-29.8219986	-18.45253372	8.957781792	4.083100796	1.0
540	0	-444.2789917	-29.8219986	-19.05271912	20.60598373	3.583569765	1.0
541	0	-444.2789917	-29.8219986	-20.77430534	27.62016869	3.863856792	1.0
[LeftToeBase]
538	0	-87.28699493	107.1060028	-2.607224464	-0.005829409696	-0.04316911846	1.0
539	0	-87.28699493	107.1060028	-1.59392345	1.259695978e-06	-4.115818683e-06	1.0
540	0	-87.28699493	107.1060028	-1.268568397	7.317439213e-06	2.618192639e-06	1.0
541	0	-87.28699493	107.1060028	-1.219089985	4.832889772e-06	1.472335356e-07	1.0
[RightUpLeg]
538	-82.07800293	-67.51699829	-15.99599934	-19.53130722	-5.180705547	-3.330868244	1.0
539	-82.07800293	-67.51699829	-15.99599934	-20.54991722	-7.853966713	-7.644975185	1.0
540	-82.07800293	-67.51699829	-15.99599934	-19.77773476	-6.162603378	-13.28849506	1.0
541	-82.07800293	-67.51699829	-15.99599934	-22.91123199	-2.127858877	-17.18327141	1.0
[RightLeg]
538	0	-443.7049866	2.861999989	1.808309555	-10.07250786	-5.146607399	1.0
539	0	-443.7049866	2.861999989	5.078424931	-9.60574913	-4.370248795	1.0
540	0	-443.7049866	2.861999989	8.754728317	-9.85324192	-3.024320841	1.0
541	0	-443.7049866	2.861999989	23.64153099	-10.61275864	-1.226402998	1.0
[RightFoot]
538	0	-444.2770081	-29.83799934	12.39286423	-21.88696861	21.63386726	1.0
539	0	-444.2770081	-29.83799934	10.57631397	-16.90409088	16.10809708	1.0
540	0	-444.2770081	-29.83799934	7.013175011	-21.12486267	6.096459866	1.0
541	0	-444.2770081	-29.83799934	-1.377544522	-20.47751045	6.455581188	1.0
[RightToeBase]
538	0	-87.28699493	107.1060028	9.121255875	-5.000559213e-06	-2.74069339e-06	1.0
539	0	-87.28699493	107.1060028	7.668442249	-5.019384844e-06	-1.606736532e-06	1.0
540	0	-87.28699493	107.1060028	7.994515419	8.365413123e-06	5.816099474e-06	1.0
541	0	-87.28699493	107.1060028	6.751601696	1.15349485e-05	3.518115591e-06	1.0
[EndOfFile]
